# xmcd
#
# Track frame offsets:
#	182
#	13372
#	27517
#	39907
#	50277
#	60630
#	72175
#	84027
#	96615
#	105595
#	114910
#	125637
#	135277
#	148940
#	159257
#	169885
#	180875
#	194035
#	205642
#	216932
#	230832
#
# Disc length: 3215 seconds
#
# Revision: 1
# Processed by: cddbd v1.4PL0 Copyright (c) Steve Scherf et al.
# Submitted via: audiograbber 1.81.00
#
DISCID=270c8d15
DTITLE=Wynonie Harris - Women, Whiskey And Fish Tails
DYEAR=1900
DGENRE=Blues
TTITLE0=Greyhound
TTITLE1=The Deacon Don't Like It
TTITLE2=Christina
TTITLE3=Shake That Thing
TTITLE4=Don't Take My Whiskey Away
TTITLE5=Drinkin' Sherry Wine
TTITLE6=Fish Tail Blues
TTITLE7=Big Old Country Fool
TTITLE8=Shotgun Wedding
TTITLE9=Wine Wine Sweet Wine
TTITLE10=Git To Gittin' Baby
TTITLE11=Mr Dollar
TTITLE12=Bad News Baby
TTITLE13=Bring It Back
TTITLE14=I Don't Know Where To Go
TTITLE15=Man's Best Friend
TTITLE16=Keep-A-Talking
TTITLE17=Please Louise
TTITLE18=I Get A Thrill
TTITLE19=There's No Substitute For Love
TTITLE20=Mama Your Daughter Done Lied On My
EXTD=
EXTT0=
EXTT1=
EXTT2=
EXTT3=
EXTT4=
EXTT5=
EXTT6=
EXTT7=
EXTT8=
EXTT9=
EXTT10=
EXTT11=
EXTT12=
EXTT13=
EXTT14=
EXTT15=
EXTT16=
EXTT17=
EXTT18=
EXTT19=
EXTT20=
PLAYORDER=
